<svg width="180" height="65" viewBox="0 0 180 65" fill="none" xmlns="http://www.w3.org/2000/svg">
<path d="M58.8929 4.12698L54.4287 35.4806C53.7991 40.1808 56.2029 44.3078 60.6671 44.3078C60.8961 44.3078 61.125 44.3078 61.3539 44.2504L63.815 17.1384H77.1505C77.1505 17.1384 72.1139 54.3386 71.3126 59.7266C68.3937 60.8157 63.4144 60.9877 60.6671 60.9877C59.5225 60.9877 58.7784 60.9303 58.7784 60.9303C46.5877 60.0705 37.2586 49.7531 37.6592 37.4868L38.8039 4.4709L58.8929 4.12698ZM23.0074 4.29894C26.5559 4.35626 30.1044 4.87213 33.5956 5.84656L34.5686 27.8571C33.4239 27.5132 32.222 27.3413 31.0201 27.2266C29.9899 27.2266 29.0169 27.6279 28.2729 28.373C27.2999 29.2901 26.7276 30.6085 26.7848 31.9268C26.7848 33.0159 27.7005 35.194 29.532 38.4039C31.1918 41.0979 32.1648 44.1358 32.2792 47.2884C32.3937 50.9568 30.9056 54.4533 28.2156 56.918C25.7546 59.2681 22.435 60.5291 19.0582 60.5291C18.9438 60.5291 18.7721 60.5291 18.6576 60.5291C18.3142 60.5291 17.9136 60.5291 17.5702 60.5291C15.3381 60.5291 13.1059 60.2425 10.9883 59.6693C10.8166 58.5802 10.4732 56.8607 10.0153 54.3959C9.72916 53.0776 9.32852 51.358 8.81342 49.1799C10.3587 49.6385 11.904 49.9824 13.5066 50.1543C16.7117 50.1543 18.257 48.836 18.257 46.1993C18.257 44.3078 17.5702 42.4735 16.3683 41.0406L10.0726 34.9647C6.18067 31.3536 3.94855 26.2522 4.00579 20.9788C4.00579 15.3616 5.8945 11.0626 9.72916 8.13933C13.0487 5.55996 17.5129 4.29894 23.0074 4.29894ZM104.108 5.04409L98.0407 34.6781C98.0407 34.6781 99.8722 34.3342 102.333 34.3342C105.882 34.3342 110.747 35.0794 113.437 38.6905C119.217 46.5432 114.066 59.7266 100.845 60.2425C100.845 60.2425 96.8961 60.4145 94.664 60.4145C89.5129 60.3571 84.4191 59.8986 79.3253 59.0388C79.0964 52.8483 81.5002 5.04409 81.5002 5.04409H104.108ZM95.5225 50.8422C99.7005 50.8422 104.05 49.3518 104.05 46.2566C104.05 43.5053 102.276 42.1869 98.7848 42.1869C98.4414 42.1869 97.0678 42.2443 96.7244 42.2443L94.8357 50.8422C95.0646 50.8422 95.2935 50.8422 95.5225 50.8422ZM175.764 5.78924L175.135 19.9471L154.13 19.2593L153.672 5.78924H175.764ZM151.726 5.78924L134.212 49.0653C134.499 49.0653 134.842 49.1226 135.3 49.1226C138.104 49.1226 144.114 48.7213 147.204 47.6323C146.861 48.664 146.346 50.4982 145.602 53.1349C145.201 54.6252 144.629 56.8607 143.942 59.8413H115.211L123.796 26.8254L119.503 27.1693C117.901 27.284 115.783 27.5705 113.036 28.0291L112.349 5.90388L151.726 5.78924ZM175.02 20.9215L174.448 34.5062C174.219 40.6966 173.933 49.1226 173.646 59.784H155.79L154.301 26.5388L175.02 20.9215ZM63.5288 0L58.8357 0.114638L38.8039 0.573192L35.0265 0.630511L34.9692 2.06349L34.683 2.00617C30.9056 0.917108 27.0137 0.343915 23.1218 0.286596H23.0646H23.0074C16.5972 0.286596 11.3317 1.83422 7.32534 4.92945C2.46048 8.6552 -0.000569659 14.0432 -0.000569659 20.9215C-0.0578034 27.3413 2.63218 33.5317 7.26811 37.888L13.3921 43.7919C13.9072 44.4797 14.1934 45.2822 14.2506 46.142C14.0789 46.142 13.9072 46.1993 13.6783 46.1993C12.4191 46.0847 11.2172 45.7981 10.0153 45.4541L3.26175 43.276L4.86429 50.1543C5.3794 52.2751 5.78003 53.9947 6.0662 55.313C6.52407 57.7205 6.81024 59.44 6.98194 60.4718L7.43981 62.9938L9.95809 63.6243C12.4191 64.2549 14.9947 64.5988 17.5702 64.5988C17.9136 64.5988 18.3142 64.5988 18.6576 64.5988C18.7721 64.5988 18.8865 64.5988 19.001 64.5988C23.408 64.5988 27.6433 62.9365 30.8484 59.8986C33.8245 57.1473 35.656 53.4788 36.0567 49.5238C37.2013 51.9312 38.6894 54.224 40.5209 56.2875C45.1568 61.4462 51.567 64.5414 58.4923 65.0573H58.5495H58.6067C58.664 65.0573 59.4652 65.1146 60.6671 65.1146C64.3301 65.1146 69.3667 64.8854 72.6862 63.6243L74.9183 62.8219L75.2617 60.4718C75.2617 60.4145 75.2617 60.3571 75.2617 60.2998L75.319 62.5353L78.5241 63.0511C83.7896 63.9109 89.1695 64.4268 94.4923 64.4841C96.7816 64.4841 100.616 64.3695 100.788 64.3122C104.336 64.1402 107.599 63.2231 110.403 61.6182L109.831 63.7963H115.039H143.77H146.918L147.662 60.7011C148.349 57.7778 148.921 55.5996 149.322 54.224C150.066 51.6446 150.581 49.8677 150.925 48.7787L151.154 48.0908L151.669 59.9559L151.84 63.7963H155.675H173.532H177.424L177.538 59.8986C177.825 49.2945 178.111 40.8113 178.34 34.6781L178.797 24.1314L178.969 20.1764L179.656 5.9612L179.828 1.7769H175.65H157.564H151.611H149.379L112.177 1.83422H108.686L108.858 1.08907H103.936H81.3285H77.4939L77.3222 4.92945C77.3222 5.38801 77.1504 8.59788 76.9215 13.1834H63.7578H61.5257L62.7276 4.70018L63.5288 0ZM103.02 30.3219L108.057 5.84656L108.343 4.58554L108.4 5.9612L109.087 28.0864L109.201 31.2963C107.255 30.6658 105.252 30.3792 103.02 30.3219ZM140.279 44.7663L150.181 20.3483L150.295 23.157L151.383 23.2143L150.238 23.5009L150.352 26.7108L151.039 42.015L145.945 43.7919C144.629 44.2504 142.454 44.5944 140.279 44.7663ZM111.662 32.2134L113.723 31.8695C115.669 31.5256 117.271 31.2963 118.53 31.1817L117.042 36.8563C116.928 36.6843 116.813 36.5123 116.642 36.3404C115.325 34.6208 113.666 33.2452 111.662 32.2134ZM30.7339 31.8122C30.7339 31.6402 30.7912 31.4683 30.9056 31.3536L30.9629 31.2963C31.7641 31.3536 32.5654 31.5256 33.3667 31.7549L33.8818 31.9268L33.7101 37.4868C33.7101 37.6014 33.7101 37.716 33.7101 37.888C33.4811 37.4295 33.195 36.9709 32.9088 36.5123C31.1346 33.2452 30.7912 32.0414 30.7339 31.8122Z" fill="#0F3A06"/>
</svg>
